<?xml version="1.0" encoding="UTF-8"?>
<!DOCTYPE svg PUBLIC "-//W3C//DTD SVG 1.1//EN" "http://www.w3.org/Graphics/SVG/1.1/DTD/svg11.dtd">
<svg xmlns="http://www.w3.org/2000/svg" version="1.1" width="25px" height="25px" style="shape-rendering:geometricPrecision; text-rendering:geometricPrecision; image-rendering:optimizeQuality; fill-rule:evenodd; clip-rule:evenodd" xmlns:xlink="http://www.w3.org/1999/xlink">
<g><path style="opacity:0.93" fill="#ff4141" d="M 6.5,-0.5 C 10.1667,-0.5 13.8333,-0.5 17.5,-0.5C 20.1667,1.5 22.5,3.83333 24.5,6.5C 24.5,10.1667 24.5,13.8333 24.5,17.5C 22.5,20.1667 20.1667,22.5 17.5,24.5C 13.8333,24.5 10.1667,24.5 6.5,24.5C 3.83333,22.5 1.5,20.1667 -0.5,17.5C -0.5,14.1667 -0.5,10.8333 -0.5,7.5C 1.11698,4.21573 3.45031,1.54906 6.5,-0.5 Z M 13.5,10.5 C 14.4679,13.0439 16.1345,15.2105 18.5,17C 15.7202,17.2692 13.5536,16.1025 12,13.5C 10.4464,16.1025 8.27976,17.2692 5.5,17C 7.18844,15.3116 8.85511,13.6449 10.5,12C 8.85511,10.3551 7.18844,8.68844 5.5,7C 6.5,6.33333 7.5,6.33333 8.5,7C 9.78925,8.80216 11.4559,9.96882 13.5,10.5 Z M 13.5,10.5 C 13.9651,7.52655 15.6318,6.35989 18.5,7C 17.2107,8.80216 15.5441,9.96882 13.5,10.5 Z"/></g>
</svg>
