<?xml version="1.0" encoding="UTF-8"?>
<!DOCTYPE svg PUBLIC "-//W3C//DTD SVG 1.1//EN" "http://www.w3.org/Graphics/SVG/1.1/DTD/svg11.dtd">
<svg xmlns="http://www.w3.org/2000/svg" version="1.1" width="20px" height="20px" style="shape-rendering:geometricPrecision; text-rendering:geometricPrecision; image-rendering:optimizeQuality; fill-rule:evenodd; clip-rule:evenodd" xmlns:xlink="http://www.w3.org/1999/xlink">
<g><path style="opacity:0.745" fill="#151c27" d="M 6.5,1.5 C 6.16667,2.5 5.5,3.16667 4.5,3.5C 4.5,2.16667 5.16667,1.5 6.5,1.5 Z"/></g>
<g><path style="opacity:0.718" fill="#0a0c11" d="M 12.5,2.5 C 12.5,2.16667 12.5,1.83333 12.5,1.5C 14.5,1.5 15.5,2.5 15.5,4.5C 15.1667,4.5 14.8333,4.5 14.5,4.5C 14.1667,3.5 13.5,2.83333 12.5,2.5 Z"/></g>
<g><path style="opacity:1" fill="#7da4cc" d="M 12.5,1.5 C 12.5,1.83333 12.5,2.16667 12.5,2.5C 12.8346,3.66404 12.8346,4.99738 12.5,6.5C 12.1667,6.5 11.8333,6.5 11.5,6.5C 11.5,5.83333 11.1667,5.5 10.5,5.5C 8.75419,4.78238 8.08752,3.78238 8.5,2.5C 7.14819,3.52435 5.81486,4.52435 4.5,5.5C 4.5,4.83333 4.5,4.16667 4.5,3.5C 5.5,3.16667 6.16667,2.5 6.5,1.5C 8.5,0.166667 10.5,0.166667 12.5,1.5 Z"/></g>
<g><path style="opacity:0.303" fill="#14171a" d="M 15.5,4.5 C 16.4884,5.79502 17.4884,7.12835 18.5,8.5C 17.5,8.5 16.5,8.5 15.5,8.5C 15.5,7.16667 15.5,5.83333 15.5,4.5 Z"/></g>
<g><path style="opacity:1" fill="#81b4f7" d="M 10.5,5.5 C 9.04125,5.43255 7.70792,5.76589 6.5,6.5C 5.06524,7.7898 4.06524,9.45647 3.5,11.5C 1.06985,9.96265 1.06985,8.29598 3.5,6.5C 3.5,5.83333 3.83333,5.5 4.5,5.5C 5.81486,4.52435 7.14819,3.52435 8.5,2.5C 8.08752,3.78238 8.75419,4.78238 10.5,5.5 Z"/></g>
<g><path style="opacity:1" fill="#fefefe" d="M 10.5,6.5 C 10.5,8.5 10.5,10.5 10.5,12.5C 9.50838,12.6716 8.84171,12.3382 8.5,11.5C 8.07729,9.21879 8.74395,7.55213 10.5,6.5 Z"/></g>
<g><path style="opacity:1" fill="#92c8f3" d="M 3.5,6.5 C 1.06985,8.29598 1.06985,9.96265 3.5,11.5C 4.06524,9.45647 5.06524,7.7898 6.5,6.5C 6.67474,8.6208 6.34141,10.6208 5.5,12.5C 4.60895,13.1098 3.60895,13.4431 2.5,13.5C 0.75164,11.8401 0.25164,9.84006 1,7.5C 1.67076,6.74756 2.5041,6.41423 3.5,6.5 Z"/></g>
<g><path style="opacity:1" fill="#656a79" d="M 10.5,5.5 C 11.1667,5.5 11.5,5.83333 11.5,6.5C 11.1667,6.5 10.8333,6.5 10.5,6.5C 8.74395,7.55213 8.07729,9.21879 8.5,11.5C 6.37955,12.4033 6.04622,13.7367 7.5,15.5C 7.16667,15.5 6.83333,15.5 6.5,15.5C 5.83333,15.5 5.5,15.1667 5.5,14.5C 5.5,13.8333 5.5,13.1667 5.5,12.5C 6.34141,10.6208 6.67474,8.6208 6.5,6.5C 7.70792,5.76589 9.04125,5.43255 10.5,5.5 Z"/></g>
<g><path style="opacity:1" fill="#4a576a" d="M 11.5,6.5 C 11.8333,6.5 12.1667,6.5 12.5,6.5C 12.3253,8.6208 12.6586,10.6208 13.5,12.5C 11.6921,11.0821 11.0254,9.08209 11.5,6.5 Z"/></g>
<g><path style="opacity:1" fill="#a5d3f8" d="M 12.5,2.5 C 13.5,2.83333 14.1667,3.5 14.5,4.5C 13.9329,6.96864 13.9329,9.30198 14.5,11.5C 14.5,11.8333 14.5,12.1667 14.5,12.5C 14.1667,12.5 13.8333,12.5 13.5,12.5C 12.6586,10.6208 12.3253,8.6208 12.5,6.5C 12.8346,4.99738 12.8346,3.66404 12.5,2.5 Z"/></g>
<g><path style="opacity:1" fill="#99c0f5" d="M 14.5,4.5 C 14.8333,4.5 15.1667,4.5 15.5,4.5C 15.5,5.83333 15.5,7.16667 15.5,8.5C 18.3382,10.3059 18.0048,11.3059 14.5,11.5C 13.9329,9.30198 13.9329,6.96864 14.5,4.5 Z"/></g>
<g><path style="opacity:0.184" fill="#1a222e" d="M 4.5,3.5 C 4.5,4.16667 4.5,4.83333 4.5,5.5C 3.83333,5.5 3.5,5.83333 3.5,6.5C 2.5041,6.41423 1.67076,6.74756 1,7.5C 0.25164,9.84006 0.75164,11.8401 2.5,13.5C 1.39105,13.4431 0.391047,13.1098 -0.5,12.5C -0.5,10.5 -0.5,8.5 -0.5,6.5C 1.33246,5.75152 2.99913,4.75152 4.5,3.5 Z"/></g>
<g><path style="opacity:1" fill="#a9d5e8" d="M 15.5,8.5 C 16.5,8.5 17.5,8.5 18.5,8.5C 18.634,10.2915 18.3007,11.9582 17.5,13.5C 16.209,13.7373 15.209,13.404 14.5,12.5C 14.5,12.1667 14.5,11.8333 14.5,11.5C 18.0048,11.3059 18.3382,10.3059 15.5,8.5 Z"/></g>
<g><path style="opacity:1" fill="#f8f7f9" d="M 8.5,11.5 C 8.84171,12.3382 9.50838,12.6716 10.5,12.5C 11.2341,13.7079 11.5674,15.0413 11.5,16.5C 9.73668,17.9538 8.40335,17.6204 7.5,15.5C 6.04622,13.7367 6.37955,12.4033 8.5,11.5 Z"/></g>
<g><path style="opacity:1" fill="#c3bfbd" d="M 10.5,6.5 C 10.8333,6.5 11.1667,6.5 11.5,6.5C 11.0254,9.08209 11.6921,11.0821 13.5,12.5C 13.5,13.1667 13.5,13.8333 13.5,14.5C 13.1667,15.5 12.5,16.1667 11.5,16.5C 11.5674,15.0413 11.2341,13.7079 10.5,12.5C 10.5,10.5 10.5,8.5 10.5,6.5 Z"/></g>
<g><path style="opacity:0.067" fill="#181d24" d="M 18.5,8.5 C 18.8333,8.5 19.1667,8.5 19.5,8.5C 19.5,10.1667 19.5,11.8333 19.5,13.5C 18.8333,13.5 18.1667,13.5 17.5,13.5C 18.3007,11.9582 18.634,10.2915 18.5,8.5 Z"/></g>
<g><path style="opacity:0.353" fill="#090b11" d="M 5.5,12.5 C 5.5,13.1667 5.5,13.8333 5.5,14.5C 4.20895,14.7373 3.20895,14.404 2.5,13.5C 3.60895,13.4431 4.60895,13.1098 5.5,12.5 Z"/></g>
<g><path style="opacity:0.348" fill="#0a0b0f" d="M 13.5,12.5 C 13.8333,12.5 14.1667,12.5 14.5,12.5C 15.209,13.404 16.209,13.7373 17.5,13.5C 16.4324,14.4345 15.099,14.7678 13.5,14.5C 13.5,13.8333 13.5,13.1667 13.5,12.5 Z"/></g>
<g><path style="opacity:0.114" fill="#161618" d="M 6.5,15.5 C 6.83333,15.5 7.16667,15.5 7.5,15.5C 8.40335,17.6204 9.73668,17.9538 11.5,16.5C 10.7961,18.3442 9.46278,18.8442 7.5,18C 6.74756,17.3292 6.41423,16.4959 6.5,15.5 Z"/></g>
</svg>
