<?xml version="1.0" encoding="UTF-8"?>
<!DOCTYPE svg PUBLIC "-//W3C//DTD SVG 1.1//EN" "http://www.w3.org/Graphics/SVG/1.1/DTD/svg11.dtd">
<svg xmlns="http://www.w3.org/2000/svg" version="1.1" width="20px" height="20px" style="shape-rendering:geometricPrecision; text-rendering:geometricPrecision; image-rendering:optimizeQuality; fill-rule:evenodd; clip-rule:evenodd" xmlns:xlink="http://www.w3.org/1999/xlink">
<g><path style="opacity:0.252" fill="#190e0f" d="M 10.5,0.5 C 9.43236,1.43448 8.09903,1.76781 6.5,1.5C 5.66175,1.84171 5.32842,2.50838 5.5,3.5C 4.5,3.5 3.5,3.5 2.5,3.5C 4.55733,1.14398 7.22399,0.143982 10.5,0.5 Z"/></g>
<g><path style="opacity:1" fill="#de758d" d="M 10.5,0.5 C 11.8333,0.5 13.1667,0.5 14.5,0.5C 15.5676,1.43448 16.901,1.76781 18.5,1.5C 18.5,3.16667 18.5,4.83333 18.5,6.5C 17.5,5.16667 16.5,3.83333 15.5,2.5C 14.5084,2.32842 13.8417,2.66175 13.5,3.5C 12.2921,2.76589 10.9587,2.43255 9.5,2.5C 9.5,3.5 9.5,4.5 9.5,5.5C 9.16667,5.5 8.83333,5.5 8.5,5.5C 8.64945,4.44802 8.48278,3.44802 8,2.5C 6.99242,7.54095 6.49242,7.20761 6.5,1.5C 8.09903,1.76781 9.43236,1.43448 10.5,0.5 Z"/></g>
<g><path style="opacity:1" fill="#84702f" d="M 2.5,3.5 C 3.5,3.5 4.5,3.5 5.5,3.5C 5.5,4.16667 5.5,4.83333 5.5,5.5C 3.82124,5.71481 2.82124,5.04814 2.5,3.5 Z"/></g>
<g><path style="opacity:0.949" fill="#452229" d="M 14.5,0.5 C 16.1667,0.5 17.8333,0.5 19.5,0.5C 19.5,2.5 19.5,4.5 19.5,6.5C 19.1667,6.5 18.8333,6.5 18.5,6.5C 18.5,4.83333 18.5,3.16667 18.5,1.5C 16.901,1.76781 15.5676,1.43448 14.5,0.5 Z"/></g>
<g><path style="opacity:1" fill="#893643" d="M 6.5,1.5 C 6.49242,7.20761 6.99242,7.54095 8,2.5C 8.48278,3.44802 8.64945,4.44802 8.5,5.5C 10.6074,6.46822 12.9407,6.80155 15.5,6.5C 15.5,5.16667 15.5,3.83333 15.5,2.5C 16.5,3.83333 17.5,5.16667 18.5,6.5C 18.5,7.16667 18.1667,7.5 17.5,7.5C 16.8333,7.5 16.1667,7.5 15.5,7.5C 12.1667,7.5 8.83333,7.5 5.5,7.5C 5.5,7.16667 5.5,6.83333 5.5,6.5C 5.5,6.16667 5.5,5.83333 5.5,5.5C 5.5,4.83333 5.5,4.16667 5.5,3.5C 5.32842,2.50838 5.66175,1.84171 6.5,1.5 Z"/></g>
<g><path style="opacity:1" fill="#d16a81" d="M 15.5,2.5 C 15.5,3.83333 15.5,5.16667 15.5,6.5C 12.9407,6.80155 10.6074,6.46822 8.5,5.5C 8.83333,5.5 9.16667,5.5 9.5,5.5C 11.4832,5.84316 12.8166,5.17649 13.5,3.5C 13.8417,2.66175 14.5084,2.32842 15.5,2.5 Z"/></g>
<g><path style="opacity:1" fill="#85424f" d="M 13.5,3.5 C 12.8166,5.17649 11.4832,5.84316 9.5,5.5C 9.5,4.5 9.5,3.5 9.5,2.5C 10.9587,2.43255 12.2921,2.76589 13.5,3.5 Z"/></g>
<g><path style="opacity:0.95" fill="#1e3135" d="M 2.5,3.5 C 2.82124,5.04814 3.82124,5.71481 5.5,5.5C 5.5,5.83333 5.5,6.16667 5.5,6.5C 5.16667,6.5 4.83333,6.5 4.5,6.5C 3.16667,6.5 1.83333,6.5 0.5,6.5C -0.054502,10.0122 0.612165,13.0122 2.5,15.5C 2.5,15.8333 2.5,16.1667 2.5,16.5C 1.83333,16.5 1.16667,16.5 0.5,16.5C 0.166667,16.5 -0.166667,16.5 -0.5,16.5C -0.5,12.5 -0.5,8.5 -0.5,4.5C 0.608953,4.44312 1.60895,4.10978 2.5,3.5 Z"/></g>
<g><path style="opacity:1" fill="#1f7787" d="M 5.5,8.5 C 5.5,8.16667 5.5,7.83333 5.5,7.5C 8.83333,7.5 12.1667,7.5 15.5,7.5C 15.5,9.5 15.5,11.5 15.5,13.5C 15.5,14.1667 15.5,14.8333 15.5,15.5C 15.1667,15.5 14.8333,15.5 14.5,15.5C 14.5,13.1667 14.5,10.8333 14.5,8.5C 11.5,8.5 8.5,8.5 5.5,8.5 Z"/></g>
<g><path style="opacity:0.445" fill="#0d0904" d="M 18.5,6.5 C 18.8333,6.5 19.1667,6.5 19.5,6.5C 19.5,7.16667 19.5,7.83333 19.5,8.5C 18.6909,10.2922 18.1909,12.2922 18,14.5C 17.2917,15.3805 16.4584,16.0472 15.5,16.5C 15.5,16.1667 15.5,15.8333 15.5,15.5C 15.5,14.8333 15.5,14.1667 15.5,13.5C 17.3079,12.0821 17.9746,10.0821 17.5,7.5C 18.1667,7.5 18.5,7.16667 18.5,6.5 Z"/></g>
<g><path style="opacity:1" fill="#6ff1f9" d="M 4.5,6.5 C 4.21781,7.77765 3.55114,8.77765 2.5,9.5C 1.16667,10.5 1.16667,11.5 2.5,12.5C 1.16667,13.5 1.16667,14.5 2.5,15.5C 0.612165,13.0122 -0.054502,10.0122 0.5,6.5C 1.83333,6.5 3.16667,6.5 4.5,6.5 Z"/></g>
<g><path style="opacity:1" fill="#73f7fd" d="M 5.5,8.5 C 8.5,8.5 11.5,8.5 14.5,8.5C 14.5,10.8333 14.5,13.1667 14.5,15.5C 14.1667,15.5 13.8333,15.5 13.5,15.5C 13.5,14.5 13.5,13.5 13.5,12.5C 13.5,11.5 13.5,10.5 13.5,9.5C 11.8212,9.28519 10.8212,9.95186 10.5,11.5C 10.1667,11.5 9.83333,11.5 9.5,11.5C 9.17876,9.95186 8.17876,9.28519 6.5,9.5C 5.83333,9.5 5.5,9.16667 5.5,8.5 Z"/></g>
<g><path style="opacity:1" fill="#484e4f" d="M 6.5,9.5 C 8.17876,9.28519 9.17876,9.95186 9.5,11.5C 7.40171,12.9143 6.40171,12.2476 6.5,9.5 Z"/></g>
<g><path style="opacity:1" fill="#495052" d="M 13.5,12.5 C 12.8333,12.5 12.1667,12.5 11.5,12.5C 11.5,11.8333 11.1667,11.5 10.5,11.5C 10.8212,9.95186 11.8212,9.28519 13.5,9.5C 13.5,10.5 13.5,11.5 13.5,12.5 Z"/></g>
<g><path style="opacity:1" fill="#987533" d="M 15.5,7.5 C 16.1667,7.5 16.8333,7.5 17.5,7.5C 17.9746,10.0821 17.3079,12.0821 15.5,13.5C 15.5,11.5 15.5,9.5 15.5,7.5 Z"/></g>
<g><path style="opacity:1" fill="#535051" d="M 2.5,9.5 C 6.5,10.5 6.5,11.5 2.5,12.5C 1.16667,11.5 1.16667,10.5 2.5,9.5 Z"/></g>
<g><path style="opacity:1" fill="#66e1f4" d="M 4.5,6.5 C 4.83333,6.5 5.16667,6.5 5.5,6.5C 5.5,6.83333 5.5,7.16667 5.5,7.5C 5.5,7.83333 5.5,8.16667 5.5,8.5C 5.5,9.16667 5.83333,9.5 6.5,9.5C 6.40171,12.2476 7.40171,12.9143 9.5,11.5C 9.83333,11.5 10.1667,11.5 10.5,11.5C 11.1667,11.5 11.5,11.8333 11.5,12.5C 10.2617,12.81 10.2617,13.31 11.5,14C 9.29221,14.1909 7.29221,14.6909 5.5,15.5C 4.77896,17.3818 3.77896,17.7152 2.5,16.5C 2.5,16.1667 2.5,15.8333 2.5,15.5C 1.16667,14.5 1.16667,13.5 2.5,12.5C 6.5,11.5 6.5,10.5 2.5,9.5C 3.55114,8.77765 4.21781,7.77765 4.5,6.5 Z"/></g>
<g><path style="opacity:1" fill="#6df2ff" d="M 11.5,12.5 C 12.1667,12.5 12.8333,12.5 13.5,12.5C 13.5,13.5 13.5,14.5 13.5,15.5C 10.8333,15.5 8.16667,15.5 5.5,15.5C 7.29221,14.6909 9.29221,14.1909 11.5,14C 10.2617,13.31 10.2617,12.81 11.5,12.5 Z"/></g>
<g><path style="opacity:0.102" fill="#0e1718" d="M 5.5,15.5 C 8.16667,15.5 10.8333,15.5 13.5,15.5C 13.8333,15.5 14.1667,15.5 14.5,15.5C 14.8333,15.5 15.1667,15.5 15.5,15.5C 15.5,15.8333 15.5,16.1667 15.5,16.5C 11.6612,17.293 7.66121,17.9597 3.5,18.5C 1.96227,18.5466 0.962269,17.8799 0.5,16.5C 1.16667,16.5 1.83333,16.5 2.5,16.5C 3.77896,17.7152 4.77896,17.3818 5.5,15.5 Z"/></g>
</svg>
