<?xml version="1.0" encoding="UTF-8"?>
<!DOCTYPE svg PUBLIC "-//W3C//DTD SVG 1.1//EN" "http://www.w3.org/Graphics/SVG/1.1/DTD/svg11.dtd">
<svg xmlns="http://www.w3.org/2000/svg" version="1.1" width="20px" height="20px" style="shape-rendering:geometricPrecision; text-rendering:geometricPrecision; image-rendering:optimizeQuality; fill-rule:evenodd; clip-rule:evenodd" xmlns:xlink="http://www.w3.org/1999/xlink">
<g><path style="opacity:1" fill="#1765b5" d="M 4.5,-0.5 C 5.16667,-0.5 5.83333,-0.5 6.5,-0.5C 6.5,1.16667 6.5,2.83333 6.5,4.5C 4.38115,4.53235 3.04782,3.53235 2.5,1.5C 3.16667,0.833333 3.83333,0.166667 4.5,-0.5 Z"/></g>
<g><path style="opacity:1" fill="#1875d2" d="M 6.5,-0.5 C 7.16667,-0.5 7.83333,-0.5 8.5,-0.5C 9.16667,0.166667 9.83333,0.833333 10.5,1.5C 10.5,2.5 10.5,3.5 10.5,4.5C 9.16667,4.5 7.83333,4.5 6.5,4.5C 6.5,2.83333 6.5,1.16667 6.5,-0.5 Z"/></g>
<g><path style="opacity:1" fill="#198def" d="M 10.5,1.5 C 13.9868,2.44458 15.3201,4.77791 14.5,8.5C 13.609,9.10978 12.609,9.44312 11.5,9.5C 8.5,9.5 5.5,9.5 2.5,9.5C 2.5,9.16667 2.5,8.83333 2.5,8.5C 14.5,7.83333 14.5,7.16667 2.5,6.5C 3.83333,5.83333 5.16667,5.16667 6.5,4.5C 7.83333,4.5 9.16667,4.5 10.5,4.5C 10.5,3.5 10.5,2.5 10.5,1.5 Z"/></g>
<g><path style="opacity:0.961" fill="#2c86d4" d="M 2.5,1.5 C 3.04782,3.53235 4.38115,4.53235 6.5,4.5C 5.16667,5.16667 3.83333,5.83333 2.5,6.5C 2.5,7.16667 2.5,7.83333 2.5,8.5C 2.5,8.83333 2.5,9.16667 2.5,9.5C 3.18342,11.1765 4.51676,11.8432 6.5,11.5C 6.5,11.8333 6.5,12.1667 6.5,12.5C 5.12656,12.3433 3.79323,12.51 2.5,13C 4.4727,13.4955 6.4727,13.6621 8.5,13.5C 5.7131,14.4767 2.7131,14.81 -0.5,14.5C -0.5,10.5 -0.5,6.5 -0.5,2.5C 0.391047,1.89022 1.39105,1.55688 2.5,1.5 Z"/></g>
<g><path style="opacity:1" fill="#cadff1" d="M 2.5,6.5 C 14.5,7.16667 14.5,7.83333 2.5,8.5C 2.5,7.83333 2.5,7.16667 2.5,6.5 Z"/></g>
<g><path style="opacity:0.994" fill="#a9cff0" d="M 2.5,9.5 C 5.5,9.5 8.5,9.5 11.5,9.5C 10.4479,11.256 8.78121,11.9227 6.5,11.5C 4.51676,11.8432 3.18342,11.1765 2.5,9.5 Z"/></g>
<g><path style="opacity:0.996" fill="#1e93f8" d="M 14.5,8.5 C 14.5,9.16667 14.5,9.83333 14.5,10.5C 13.8333,10.5 13.5,10.8333 13.5,11.5C 12.8333,11.5 12.5,11.8333 12.5,12.5C 11.8333,12.5 11.5,12.8333 11.5,13.5C 11.1667,13.5 10.8333,13.5 10.5,13.5C 9.43236,12.5655 8.09903,12.2322 6.5,12.5C 6.5,12.1667 6.5,11.8333 6.5,11.5C 8.78121,11.9227 10.4479,11.256 11.5,9.5C 12.609,9.44312 13.609,9.10978 14.5,8.5 Z"/></g>
<g><path style="opacity:0.975" fill="#f2f4f4" d="M 6.5,12.5 C 8.09903,12.2322 9.43236,12.5655 10.5,13.5C 10.5,13.8333 10.5,14.1667 10.5,14.5C 10.1667,14.5 9.83333,14.5 9.5,14.5C 9.5,13.8333 9.16667,13.5 8.5,13.5C 6.4727,13.6621 4.4727,13.4955 2.5,13C 3.79323,12.51 5.12656,12.3433 6.5,12.5 Z"/></g>
<g><path style="opacity:1" fill="#e3a704" d="M 18.5,9.5 C 17.8333,10.5 17.1667,11.5 16.5,12.5C 13.7805,14.2193 11.7805,16.5526 10.5,19.5C 9.83333,19.5 9.16667,19.5 8.5,19.5C 8.5,18.8333 8.5,18.1667 8.5,17.5C 9.33825,17.1583 9.67158,16.4916 9.5,15.5C 10.1667,15.5 10.5,15.1667 10.5,14.5C 11.1667,14.5 11.5,14.1667 11.5,13.5C 12.1667,13.5 12.5,13.1667 12.5,12.5C 13.1667,12.5 13.5,12.1667 13.5,11.5C 14.1667,11.5 14.5,11.1667 14.5,10.5C 15.4822,9.85917 16.4822,9.19251 17.5,8.5C 18.1067,8.62358 18.44,8.95691 18.5,9.5 Z"/></g>
<g><path style="opacity:0.751" fill="#1984db" d="M 8.5,13.5 C 9.16667,13.5 9.5,13.8333 9.5,14.5C 9.5,14.8333 9.5,15.1667 9.5,15.5C 8.66175,15.8417 8.32842,16.5084 8.5,17.5C 5.39147,17.7359 2.39147,17.4025 -0.5,16.5C -0.5,15.8333 -0.5,15.1667 -0.5,14.5C 2.7131,14.81 5.7131,14.4767 8.5,13.5 Z"/></g>
<g><path style="opacity:1" fill="#fbc207" d="M 16.5,12.5 C 16.9382,12.4346 17.2716,12.6012 17.5,13C 15.8333,14.6667 14.1667,16.3333 12.5,18C 12.7284,18.3988 13.0618,18.5654 13.5,18.5C 13.5,18.8333 13.5,19.1667 13.5,19.5C 12.5,19.5 11.5,19.5 10.5,19.5C 11.7805,16.5526 13.7805,14.2193 16.5,12.5 Z"/></g>
<g><path style="opacity:0.318" fill="#fec107" d="M 18.5,9.5 C 18.8333,9.5 19.1667,9.5 19.5,9.5C 19.5,10.8333 19.5,12.1667 19.5,13.5C 17.5,15.1667 15.5,16.8333 13.5,18.5C 13.0618,18.5654 12.7284,18.3988 12.5,18C 14.1667,16.3333 15.8333,14.6667 17.5,13C 17.2716,12.6012 16.9382,12.4346 16.5,12.5C 17.1667,11.5 17.8333,10.5 18.5,9.5 Z"/></g>
</svg>
