<?xml version="1.0" encoding="UTF-8"?>
<!DOCTYPE svg PUBLIC "-//W3C//DTD SVG 1.1//EN" "http://www.w3.org/Graphics/SVG/1.1/DTD/svg11.dtd">
<svg xmlns="http://www.w3.org/2000/svg" version="1.1" width="20px" height="20px" style="shape-rendering:geometricPrecision; text-rendering:geometricPrecision; image-rendering:optimizeQuality; fill-rule:evenodd; clip-rule:evenodd" xmlns:xlink="http://www.w3.org/1999/xlink">
<g><path style="opacity:0.965" fill="#fe5853" d="M 10.5,-0.5 C 11.8333,-0.5 13.1667,-0.5 14.5,-0.5C 15.9649,0.736849 17.6316,1.73685 19.5,2.5C 19.5,4.83333 19.5,7.16667 19.5,9.5C 18.1667,9.5 16.8333,9.5 15.5,9.5C 14.8333,6.83333 14.1667,6.83333 13.5,9.5C 12.8333,9.5 12.1667,9.5 11.5,9.5C 11.8016,6.9407 11.4682,4.60737 10.5,2.5C 10.5,1.5 10.5,0.5 10.5,-0.5 Z"/></g>
<g><path style="opacity:1" fill="#254fa1" d="M 10.5,2.5 C 10.6641,5.1873 10.4974,7.85397 10,10.5C 9.72158,9.5842 9.22158,8.91753 8.5,8.5C 7.16667,7.83333 6.16667,6.83333 5.5,5.5C 5.5,4.83333 5.16667,4.5 4.5,4.5C 5.91791,2.69206 7.91791,2.02539 10.5,2.5 Z"/></g>
<g><path style="opacity:1" fill="#8e476f" d="M 15.5,9.5 C 14.8333,12.1667 14.1667,12.1667 13.5,9.5C 14.1667,6.83333 14.8333,6.83333 15.5,9.5 Z"/></g>
<g><path style="opacity:0.879" fill="#f4c81b" d="M 4.5,4.5 C 5.16667,4.5 5.5,4.83333 5.5,5.5C 6.16667,6.83333 7.16667,7.83333 8.5,8.5C 7.92499,10.4113 6.92499,12.078 5.5,13.5C 4.83333,13.5 4.5,13.8333 4.5,14.5C 2.95186,14.1788 2.28519,13.1788 2.5,11.5C 1.5,11.5 0.5,11.5 -0.5,11.5C -0.5,10.1667 -0.5,8.83333 -0.5,7.5C 0.5,7.5 1.5,7.5 2.5,7.5C 2.28519,5.82124 2.95186,4.82124 4.5,4.5 Z"/></g>
<g><path style="opacity:0.994" fill="#fc1c5a" d="M 11.5,9.5 C 12.1667,9.5 12.8333,9.5 13.5,9.5C 14.1667,12.1667 14.8333,12.1667 15.5,9.5C 16.8333,9.5 18.1667,9.5 19.5,9.5C 19.5,12.1667 19.5,14.8333 19.5,17.5C 18.0048,17.9887 16.6715,18.6554 15.5,19.5C 13.8333,19.5 12.1667,19.5 10.5,19.5C 10.5,18.8333 10.5,18.1667 10.5,17.5C 11.4731,15.0521 11.8064,12.3854 11.5,9.5 Z"/></g>
<g><path style="opacity:0.972" fill="#2a335e" d="M 10.5,2.5 C 11.4682,4.60737 11.8016,6.9407 11.5,9.5C 11.8064,12.3854 11.4731,15.0521 10.5,17.5C 8.5,17.5 6.5,17.5 4.5,17.5C 4.5,16.5 4.5,15.5 4.5,14.5C 5.16667,14.5 5.5,14.1667 5.5,13.5C 6.92499,12.078 7.92499,10.4113 8.5,8.5C 9.22158,8.91753 9.72158,9.5842 10,10.5C 10.4974,7.85397 10.6641,5.1873 10.5,2.5 Z"/></g>
</svg>
