<?xml version="1.0" encoding="UTF-8"?>
<!DOCTYPE svg PUBLIC "-//W3C//DTD SVG 1.1//EN" "http://www.w3.org/Graphics/SVG/1.1/DTD/svg11.dtd">
<svg xmlns="http://www.w3.org/2000/svg" version="1.1" width="20px" height="20px" style="shape-rendering:geometricPrecision; text-rendering:geometricPrecision; image-rendering:optimizeQuality; fill-rule:evenodd; clip-rule:evenodd" xmlns:xlink="http://www.w3.org/1999/xlink">
<g><path style="opacity:0.77" fill="#ff7c3b" d="M 9.5,1.5 C 9.36596,3.29152 9.69929,4.95819 10.5,6.5C 10.1667,6.5 9.83333,6.5 9.5,6.5C 6.50674,7.83342 4.17341,9.83342 2.5,12.5C 1.22235,12.2178 0.222348,11.5511 -0.5,10.5C -0.5,9.83333 -0.5,9.16667 -0.5,8.5C 2.83333,6.16667 6.16667,3.83333 9.5,1.5 Z"/></g>
<g><path style="opacity:1" fill="#ff501b" d="M 9.5,1.5 C 10.7206,2.02832 11.8873,2.69499 13,3.5C 14.3561,2.61983 15.8561,2.28649 17.5,2.5C 17.0535,5.01011 17.7202,7.01011 19.5,8.5C 19.5,9.16667 19.5,9.83333 19.5,10.5C 18.7777,11.5511 17.7777,12.2178 16.5,12.5C 14.8545,10.1878 12.8545,8.1878 10.5,6.5C 9.69929,4.95819 9.36596,3.29152 9.5,1.5 Z"/></g>
<g><path style="opacity:0.964" fill="#ff9b01" d="M 9.5,6.5 C 9.83333,6.5 10.1667,6.5 10.5,6.5C 12.8545,8.1878 14.8545,10.1878 16.5,12.5C 16.5,14.1667 16.5,15.8333 16.5,17.5C 14.5,17.5 12.5,17.5 10.5,17.5C 10.7678,15.901 10.4345,14.5676 9.5,13.5C 9.5,11.1667 9.5,8.83333 9.5,6.5 Z"/></g>
<g><path style="opacity:0.947" fill="#ffb84f" d="M 9.5,6.5 C 9.5,8.83333 9.5,11.1667 9.5,13.5C 8.56552,14.5676 8.23219,15.901 8.5,17.5C 6.5,17.5 4.5,17.5 2.5,17.5C 2.5,15.8333 2.5,14.1667 2.5,12.5C 4.17341,9.83342 6.50674,7.83342 9.5,6.5 Z"/></g>
</svg>
