<?xml version="1.0" encoding="UTF-8"?>
<!DOCTYPE svg PUBLIC "-//W3C//DTD SVG 1.1//EN" "http://www.w3.org/Graphics/SVG/1.1/DTD/svg11.dtd">
<svg xmlns="http://www.w3.org/2000/svg" version="1.1" width="20px" height="20px" style="shape-rendering:geometricPrecision; text-rendering:geometricPrecision; image-rendering:optimizeQuality; fill-rule:evenodd; clip-rule:evenodd" xmlns:xlink="http://www.w3.org/1999/xlink">
<g><path style="opacity:0.982" fill="#4688f4" d="M -0.5,-0.5 C 1.16667,-0.5 2.83333,-0.5 4.5,-0.5C 4.5,0.5 4.5,1.5 4.5,2.5C 4.06178,2.43456 3.72845,2.60123 3.5,3C 4.4158,3.27842 5.08247,3.77842 5.5,4.5C 3.80072,4.52709 2.46739,5.19376 1.5,6.5C 0.794049,5.44272 0.460716,5.77606 0.5,7.5C 0.166667,7.5 -0.166667,7.5 -0.5,7.5C -0.5,4.83333 -0.5,2.16667 -0.5,-0.5 Z"/></g>
<g><path style="opacity:0.986" fill="#4477e0" d="M 4.5,-0.5 C 5.83333,-0.5 7.16667,-0.5 8.5,-0.5C 8.43255,0.95875 8.76589,2.29208 9.5,3.5C 9.5,4.16667 9.5,4.83333 9.5,5.5C 8.34062,3.74973 6.67396,2.74973 4.5,2.5C 4.5,1.5 4.5,0.5 4.5,-0.5 Z"/></g>
<g><path style="opacity:0.808" fill="#fcf7f6" d="M 9.5,3.5 C 11.1667,3.5 12.8333,3.5 14.5,3.5C 14.634,5.29152 14.3007,6.95819 13.5,8.5C 12.5,8.5 11.5,8.5 10.5,8.5C 10.4431,7.39105 10.1098,6.39105 9.5,5.5C 9.5,4.83333 9.5,4.16667 9.5,3.5 Z"/></g>
<g><path style="opacity:0.884" fill="#dadee6" d="M 14.5,3.5 C 16.2915,3.36596 17.9582,3.69929 19.5,4.5C 19.5,5.83333 19.5,7.16667 19.5,8.5C 17.4642,10.2057 16.4642,12.539 16.5,15.5C 15.5084,15.6716 14.8417,15.3382 14.5,14.5C 15.339,13.3588 16.0057,12.0255 16.5,10.5C 15.9953,9.08149 14.9953,8.41483 13.5,8.5C 14.3007,6.95819 14.634,5.29152 14.5,3.5 Z"/></g>
<g><path style="opacity:1" fill="#c6d2ea" d="M 5.5,4.5 C 7.84542,5.98787 8.17875,7.98787 6.5,10.5C 3.63326,10.6308 1.96659,9.29744 1.5,6.5C 2.46739,5.19376 3.80072,4.52709 5.5,4.5 Z"/></g>
<g><path style="opacity:0.899" fill="#4086f4" d="M -0.5,7.5 C -0.166667,7.5 0.166667,7.5 0.5,7.5C 2.49843,9.83313 3.83176,12.4998 4.5,15.5C 2.70848,15.634 1.04181,15.3007 -0.5,14.5C -0.5,12.1667 -0.5,9.83333 -0.5,7.5 Z"/></g>
<g><path style="opacity:1" fill="#306ef0" d="M 3.5,5.5 C 4.23891,5.36899 4.90558,5.53566 5.5,6C 4.16667,6.66667 4.16667,7.33333 5.5,8C 3.9387,8.18806 3.27203,7.35473 3.5,5.5 Z"/></g>
<g><path style="opacity:1" fill="#3f70df" d="M 4.5,2.5 C 6.67396,2.74973 8.34062,3.74973 9.5,5.5C 10.1098,6.39105 10.4431,7.39105 10.5,8.5C 10.5,8.83333 10.5,9.16667 10.5,9.5C 9.16667,9.83333 7.83333,10.1667 6.5,10.5C 8.17875,7.98787 7.84542,5.98787 5.5,4.5C 5.08247,3.77842 4.4158,3.27842 3.5,3C 3.72845,2.60123 4.06178,2.43456 4.5,2.5 Z"/></g>
<g><path style="opacity:1" fill="#3d74e2" d="M 1.5,6.5 C 1.96659,9.29744 3.63326,10.6308 6.5,10.5C 7.83333,10.1667 9.16667,9.83333 10.5,9.5C 10.3284,10.4916 10.6618,11.1583 11.5,11.5C 11.5,12.8333 12.1667,13.5 13.5,13.5C 13.5,13.8333 13.5,14.1667 13.5,14.5C 12.8333,14.8333 12.1667,15.1667 11.5,15.5C 10.1667,14.1667 8.83333,14.1667 7.5,15.5C 6.5,15.5 5.5,15.5 4.5,15.5C 3.83176,12.4998 2.49843,9.83313 0.5,7.5C 0.460716,5.77606 0.794049,5.44272 1.5,6.5 Z"/></g>
<g><path style="opacity:1" fill="#efeef6" d="M 13.5,13.5 C 12.1667,13.5 11.5,12.8333 11.5,11.5C 12.2506,10.4265 13.2506,10.2599 14.5,11C 13.7476,11.6708 13.4142,12.5041 13.5,13.5 Z"/></g>
<g><path style="opacity:1" fill="#555fa9" d="M 10.5,8.5 C 11.5,8.5 12.5,8.5 13.5,8.5C 14.9953,8.41483 15.9953,9.08149 16.5,10.5C 16.0057,12.0255 15.339,13.3588 14.5,14.5C 14.1667,14.5 13.8333,14.5 13.5,14.5C 13.5,14.1667 13.5,13.8333 13.5,13.5C 13.4142,12.5041 13.7476,11.6708 14.5,11C 13.2506,10.2599 12.2506,10.4265 11.5,11.5C 10.6618,11.1583 10.3284,10.4916 10.5,9.5C 10.5,9.16667 10.5,8.83333 10.5,8.5 Z"/></g>
<g><path style="opacity:0.979" fill="#e5e8eb" d="M 19.5,8.5 C 19.5,12.1667 19.5,15.8333 19.5,19.5C 17.8333,19.5 16.1667,19.5 14.5,19.5C 14.5271,17.8007 15.1938,16.4674 16.5,15.5C 16.4642,12.539 17.4642,10.2057 19.5,8.5 Z"/></g>
<g><path style="opacity:1" fill="#344393" d="M 11.5,15.5 C 11.1667,16.8333 10.8333,18.1667 10.5,19.5C 9.83333,19.5 9.16667,19.5 8.5,19.5C 8.16667,18.1667 7.83333,16.8333 7.5,15.5C 8.83333,14.1667 10.1667,14.1667 11.5,15.5 Z"/></g>
<g><path style="opacity:0.983" fill="#f6f3f4" d="M 13.5,14.5 C 13.8333,14.5 14.1667,14.5 14.5,14.5C 14.8417,15.3382 15.5084,15.6716 16.5,15.5C 15.1938,16.4674 14.5271,17.8007 14.5,19.5C 13.1667,19.5 11.8333,19.5 10.5,19.5C 10.8333,18.1667 11.1667,16.8333 11.5,15.5C 12.1667,15.1667 12.8333,14.8333 13.5,14.5 Z"/></g>
</svg>
